<?xml version="1.0" encoding="UTF-8"?>
<svg xmlns="http://www.w3.org/2000/svg" xmlns:xlink="http://www.w3.org/1999/xlink" version="1.1" viewBox="0 0 453.89 136.43">
  <defs>
    <style>
      .cls-1 {
        fill: #21dbc0;
      }

      .cls-2 {
        filter: url(#outer-glow-1);
      }

      .cls-3 {
        fill: #ff6477;
      }

      .cls-4 {
        fill: #fff;
      }
    </style>
    <filter id="outer-glow-1" x="-9.54" y="-9.31" width="473" height="155" filterUnits="userSpaceOnUse">
      <feOffset dx="0" dy="0"/>
      <feGaussianBlur result="blur" stdDeviation="3"/>
      <feFlood flood-color="#fff" flood-opacity=".97"/>
      <feComposite in2="blur" operator="in"/>
      <feComposite in="SourceGraphic"/>
    </filter>
  </defs>
  <!-- Generator: Adobe Illustrator 28.7.1, SVG Export Plug-In . SVG Version: 1.2.0 Build 142)  -->
  <g>
    <g id="_レイヤー_1" data-name="レイヤー_1">
      <g>
        <circle class="cls-4" cx="66.12" cy="66.63" r="63.58"/>
        <g class="cls-2">
          <g>
            <g>
              <path class="cls-1" d="M171.09,51.11c-5.87,7.57-10.25,9.54-11.86,3.76,0-.88.37-1.77,1.25-2.58,7.07-6.48,13.7-15.99,17.24-26.01,1.33-3.96,7.22-2.26,7.29,1.33,0,2.36-6.63,13.19-6.85,13.56l-.88,43.1c-.07,2.14-1.84,3.24-3.68,3.24-1.75.02-3.48-1.14-3.39-3.24,0,0,.88-33.16.88-33.16ZM187.67,84.86c-4.8.05-4.41-6.28,0-6.34,0,0,14.22.07,14.22.07v-16.28l-8.33.07c-1.29,2.97-11.89,17.92-14.88,8.1,0-.81.37-1.77,1.33-2.58,6.85-5.97,11.35-14.22,14-22.99l-9.36.07c-2.29.05-3.48-1.52-3.46-3.17,0-1.69,1.18-3.39,3.46-3.39l10.9.07c1.72-4.09-.51-14.11,5.01-14,6.43.97,3.55,5.04,2.14,14l19.82-.07c2.28,0,3.46,1.62,3.46,3.24s-1.18,3.32-3.46,3.32l-21.51-.07c-1.18,3.9-2.58,7.66-4.2,11.2h22.4c2.36,0,3.54,1.55,3.54,3.17.34,5.06-11.07,2.48-13.85,3.02v16.28l14.37-.07c4.36,0,4.48,6.35,0,6.34,0,0-35.59,0-35.59,0Z"/>
              <path class="cls-1" d="M173.56,87.76c-1.06,0-2.05-.4-2.72-1.09-.61-.63-.91-1.47-.87-2.41l.86-32.4c-3.81,4.78-6.84,7-9.02,6.56-1.29-.25-2.24-1.43-2.81-3.49v-.07c0-1.02.44-1.95,1.32-2.76,7.43-6.81,13.85-16.5,17.17-25.91.71-2.11,2.56-2.62,4.07-2.39,1.77.27,3.67,1.69,3.71,3.79,0,2.11-4.78,10.21-6.83,13.59l-.02.04-.88,43.03c-.08,2.4-2.1,3.49-3.93,3.49h-.04ZM171.36,50.36l-.9,33.92c-.04.81.22,1.51.73,2.04.59.61,1.47.97,2.41.94,1.61,0,3.37-.94,3.44-3l.89-43.16.09-.15c3.27-5.39,6.76-11.71,6.76-13.33-.04-1.82-1.72-3.06-3.28-3.3-1.3-.2-2.91.24-3.52,2.06-3.35,9.49-9.82,19.25-17.31,26.11-.77.7-1.16,1.5-1.17,2.36.52,1.84,1.33,2.88,2.42,3.1,2.03.4,5.15-2.01,8.99-6.98l.47-.6ZM187.61,85.11c-2.49,0-3.63-1.62-3.65-3.23-.02-1.72,1.27-3.57,3.7-3.6l13.97.07v-15.78l-7.91.07c-1.09,2.28-7.35,11.4-11.79,11.4-.06,0-.12,0-.18,0-1.53-.09-2.64-1.25-3.32-3.47v-.07c-.01-.59.17-1.73,1.4-2.77,6.15-5.36,10.92-13.15,13.82-22.54l-9.02.07c-1.1.02-2.06-.32-2.74-.99-.64-.63-.98-1.49-.97-2.43,0-1.81,1.28-3.64,3.71-3.64l10.74.07c.52-1.35.64-3.31.77-5.37.25-4.05.53-8.63,4.32-8.63.03,0,.06,0,.1,0,1.9.29,3.07.84,3.69,1.75,1.02,1.49.52,3.74-.24,7.15-.33,1.5-.71,3.18-1.02,5.1l19.52-.07c2.44,0,3.71,1.76,3.71,3.49s-1.28,3.57-3.71,3.57l-21.33-.07c-1.15,3.77-2.49,7.37-4,10.7h22.01c2.6,0,3.79,1.77,3.79,3.42.06.82-.19,1.52-.72,2.06-1.72,1.73-6.1,1.46-9.62,1.25-1.47-.09-2.75-.17-3.51-.07v15.82l14.12-.07c1.38,0,2.48.6,3.1,1.68s.62,2.46,0,3.53c-.61,1.05-1.71,1.63-3.09,1.63h-35.66ZM187.67,78.77c-2.13.03-3.22,1.58-3.21,3.1.02,1.38,1.03,2.74,3.2,2.74h35.59c1.21.03,2.15-.49,2.67-1.38.53-.91.52-2.1,0-3.03-.53-.92-1.47-1.43-2.67-1.43l-14.62.07v-16.74l.2-.04c.79-.15,2.2-.07,3.84.03,3.24.2,7.67.47,9.23-1.1.43-.44.62-.99.58-1.69,0-1.47-1.02-2.93-3.29-2.93h-22.79l.16-.35c1.59-3.46,2.99-7.22,4.19-11.17l.05-.18,21.7.07c2.11,0,3.21-1.54,3.21-3.07,0-1.44-1.01-2.99-3.21-2.99l-20.11.07.05-.29c.32-2.06.72-3.85,1.07-5.43.73-3.28,1.21-5.44.32-6.76-.54-.78-1.59-1.27-3.32-1.53-.03,0-.05,0-.08,0-3.29,0-3.55,4.15-3.8,8.16-.14,2.19-.26,4.26-.87,5.69l-.06.15-11.07-.07c-2.21,0-3.21,1.63-3.21,3.14,0,.8.29,1.54.82,2.07.58.57,1.38.87,2.38.85l9.7-.08-.1.32c-2.91,9.63-7.78,17.62-14.07,23.1-1.05.89-1.23,1.84-1.24,2.35.61,1.97,1.57,3.01,2.86,3.08,4.03.24,10.5-8.84,11.55-11.25l.06-.15,8.74-.08v16.79l-14.47-.07Z"/>
            </g>
            <g>
              <path class="cls-1" d="M297.08,60.62l-4.2-.15c1.83,2.6,8.09,4.31,8.33,7.29-.83,4.6-4.28,3.86-8.1.3-5.93,5.4-7.98,5.88-9.28,2.06.57-2.51,3.97-3.31,5.6-5.6-1.25-1.33-2.43-2.73-3.46-4.13h-11.57c-1.03,1.62-2.21,3.17-3.46,4.64,5.38,3.47,5.32,6.37,1.4,7.52-2-.11-3.6-2.94-5.16-3.76-3.97,3.18-4.53,4.4-7.22,2.36.08,6.51,1.54,15.43-7.37,15.25-3.31,0-5.89-.96-5.89-3.46.12-5.39,7.55.43,7.74-4.79.07-1.99.07-5.3.07-9.06h-6.34c-.77,10.7-7.08,25.1-11.64,15.69,4.68-7.46,6.9-16.91,6.48-27.56,0-4.44-.16-8.74-.22-12.67,0-4.86,3.24-5.82,8.25-5.82,4.36-.42,9.1,1.03,8.92,6.12v22.47c2.94-2.05,5.8-4.25,7.88-6.85-.11-.01-4.32.16-4.42.15-3.21,0-3.27-4.91,0-4.94.09,0,7.72.08,7.81.07.81-1.33,1.47-2.8,2.06-4.2-.1,0-7.64.08-7.74.07-3.49-.02-3.41-4.83.07-4.79,0,0,2.58,0,2.58,0-1.92-3.68-5.91-6.31-.15-7.52,2.84.41,6.47,5.33,4.42,7.52h2.36c1.45-2.93-.27-9.2,4.13-9.28,4.94,1.11,2.96,2.42,1.47,9.28h3.39c1.27-1.3,1.63-7.59,4.86-7.59,5.09.57,3.21,3.87.96,7.59h3.83c3.49-.03,3.36,4.73.07,4.79-.09,0-7.35-.08-7.44-.07.74,1.47,1.62,2.87,2.58,4.2.07,0,8.4-.07,8.47-.07,3.51.03,3.36,5.01-.07,4.94ZM281.83,33.73c.33,4.63-7.24,4.74-6.63,0h-11.49c.37,2.61-.69,5.19-3.54,5.08-2.96.08-3.51-2.55-3.24-5.08h-14.81c-2.28,0-3.46-1.55-3.46-3.02,0-1.55,1.18-3.02,3.46-3.02h14.81c-.2-2.69-.06-5.9,3.39-5.82,3.45-.08,3.59,3.13,3.39,5.82h11.49c-.2-2.65-.05-5.9,3.32-5.82,3.42-.08,3.5,3.18,3.32,5.82h15.18c2.21,0,3.32,1.47,3.32,2.95,0,1.55-1.18,3.09-3.32,3.09h-15.18ZM254.5,57.01h-5.89c0,2.21,0,4.49-.07,6.7h5.97v-6.7ZM254.42,51.63c-.41-4.25,1.7-8.11-4.13-7.37-2.88-.04-1.32,5.78-1.69,7.37h5.82ZM264,83.75c-2.83,0-3.99-4.24-1.18-5.23,4.13-1.33,5.67-2.28,8.84-4.42,1.58-1.17,3.57.15,3.54,2.06,0,.81-.29,1.62-1.18,2.28-5.97,4.57-8.92,5.3-10.02,5.3ZM276.75,64.3c0-1.77,1.33-2.65,2.73-2.65,3.02,0,3.02,2.36,3.02,4.72,0,3.09-.07,7.44-.07,8.47.07,5.33,1.73,12.46-7.15,12.53-6.55.65-6.84-5.26-3.17-5.97,4.65,1.05,5-.36,4.72-5.08,0-4.03,0-9.66-.07-12.01ZM282.94,55.76c-.88-1.47-1.62-2.95-2.14-4.27h-1.92c-.59,1.47-1.18,2.87-1.84,4.27h5.89ZM294.13,83.75c-2.71-3.19-10.81-4.2-10.54-6.85.84-5.61,9.73-.42,13.7,1.62,3.72,2.21.29,8.24-3.17,5.23Z"/>
              <path class="cls-1" d="M239.8,88.08c-1.3,0-2.48-1.07-3.51-3.19l-.06-.12.07-.12c4.63-7.37,6.86-16.85,6.44-27.41,0-2.89-.06-5.69-.13-8.41-.04-1.46-.07-2.89-.09-4.27,0-5.04,3.4-6.07,8.5-6.07,3.14-.3,5.88.39,7.49,1.9,1.18,1.11,1.74,2.61,1.68,4.47v21.98c2.43-1.71,5.09-3.75,7.09-6.11-.42.01-1.03.04-1.6.06-1.97.07-2.26.08-2.31.07-1.72,0-2.65-1.37-2.65-2.72,0-1.3.83-2.7,2.68-2.71.03,0,.68,0,4.65.04,1.34.01,2.62.03,3.03.03.72-1.2,1.32-2.52,1.83-3.7-.61,0-1.88.02-3.19.03-3.04.03-4.12.04-4.18.04-1.11,0-2-.47-2.48-1.32-.46-.81-.45-1.86.03-2.67.5-.84,1.42-1.31,2.54-1.3h2.16c-.42-.74-.91-1.43-1.38-2.1-1.02-1.44-1.89-2.68-1.49-3.71.31-.78,1.29-1.32,3.09-1.69h.04s.04,0,.04,0c1.9.28,4.17,2.43,4.97,4.71.38,1.09.35,2.07-.09,2.81h1.7c.42-.96.54-2.29.66-3.58.21-2.31.44-4.89,2.57-5.55-.59-.07-1.15-.26-1.63-.58-.96-.63-1.43-1.66-1.35-2.91h-10.94c.17,1.62-.21,3.07-1.05,4-.68.75-1.65,1.12-2.78,1.08-1.07.02-1.93-.29-2.53-.94-.98-1.06-1.09-2.79-.98-4.14h-14.54c-2.44,0-3.71-1.65-3.71-3.27s1.16-3.27,3.71-3.27h14.54c-.11-1.71-.06-3.73,1.04-4.88.61-.65,1.51-.97,2.63-.94,1.12-.03,2,.29,2.61.94,1.1,1.16,1.15,3.18,1.04,4.88h10.96c-.11-1.71-.06-3.73,1.04-4.9.6-.64,1.48-.94,2.55-.92,1.05-.03,1.94.28,2.54.9,1.08,1.13,1.15,3.09,1.04,4.92h14.91c2.34,0,3.57,1.61,3.57,3.2s-1.25,3.34-3.57,3.34h-14.92c.01,1.29-.56,2.34-1.65,2.97-.35.21-.74.35-1.13.44,1.62.39,2.4.8,2.78,1.44.53.89.18,2.1-.4,4.1-.28.98-.63,2.19-.96,3.66h2.97c.36-.44.67-1.41,1-2.43.74-2.3,1.66-5.16,3.98-5.16,1.78.2,2.84.72,3.28,1.61.74,1.51-.53,3.76-1.87,5.98h3.42c1.9,0,2.78,1.32,2.79,2.56.02,1.33-.92,2.69-2.75,2.73-.04,0-.91,0-4.46-.04-1.07-.01-2.05-.02-2.58-.03.63,1.21,1.38,2.42,2.3,3.7h.98c5.3-.06,7.35-.07,7.37-.07,1.11.01,1.99.49,2.47,1.34.48.86.46,1.96-.05,2.81-.51.85-1.41,1.3-2.5,1.28h0l-3.65-.13c.82.89,2.16,1.7,3.47,2.49,2.17,1.31,4.42,2.66,4.56,4.52v.03s0,.03,0,.03c-.33,1.81-1.06,2.91-2.18,3.28-1.55.52-3.68-.42-6.17-2.69-3.96,3.58-5.99,4.78-7.46,4.4-.89-.23-1.53-1.03-2.06-2.6l-.02-.07.02-.07c.35-1.54,1.64-2.44,3.01-3.39.91-.63,1.84-1.28,2.5-2.14-1.19-1.27-2.29-2.58-3.26-3.89h-11.3c-.92,1.43-1.97,2.85-3.23,4.34,2.88,1.9,4.28,3.73,4.06,5.28-.17,1.13-1.19,2.01-2.96,2.53h-.04s-.04,0-.04,0c-1.32-.07-2.42-1.18-3.48-2.25-.57-.58-1.12-1.13-1.64-1.45-.54.43-1.01.83-1.43,1.18-2.48,2.07-3.41,2.85-5.56,1.37.01.58.03,1.19.06,1.79.15,4.15.31,8.85-2.17,11.37-1.27,1.29-3.1,1.9-5.52,1.84-3.96,0-6.14-1.32-6.14-3.71.02-.99.27-1.68.77-2.14.82-.75,2.12-.66,3.39-.57,1.2.08,2.33.16,2.98-.43.37-.34.57-.88.6-1.66.07-1.94.07-5.12.07-8.8h-5.85c-.64,8.1-4.29,17.96-8.11,18.7-.16.03-.32.05-.47.05ZM236.8,84.8c1.02,2.05,2.16,2.98,3.38,2.75,3.59-.69,7.16-10.67,7.73-18.47l.02-.23h6.82v.25c0,3.8,0,7.08-.07,9.07-.03.92-.28,1.58-.76,2.02-.81.73-2.1.64-3.35.55-1.16-.08-2.36-.16-3.01.44-.39.36-.59.94-.61,1.77,0,2.79,3.54,3.21,5.64,3.21,2.28.05,3.99-.51,5.16-1.7,2.33-2.37,2.17-6.95,2.03-11-.03-.79-.05-1.56-.06-2.31v-.51s.4.31.4.31c2.13,1.62,2.75,1.11,5.34-1.06.46-.38.98-.82,1.57-1.29l.13-.1.14.08c.64.33,1.25.96,1.91,1.62.98.99,1.99,2.02,3.11,2.1,1.09-.32,2.4-.95,2.56-2.11.2-1.37-1.25-3.13-4.07-4.95l-.24-.15.18-.22c1.35-1.59,2.48-3.1,3.44-4.61l.07-.12h11.83l.08.1c1.02,1.38,2.18,2.76,3.44,4.1l.14.15-.12.17c-.72,1.01-1.75,1.73-2.75,2.42-1.27.88-2.47,1.71-2.79,3.02.46,1.33,1,2.03,1.69,2.21,1.27.33,3.35-.96,7.17-4.44l.17-.15.17.16c2.38,2.23,4.46,3.2,5.84,2.74.93-.31,1.55-1.27,1.84-2.87-.15-1.59-2.27-2.86-4.32-4.1-1.55-.94-3.16-1.9-3.96-3.04l-.29-.41,4.7.16c.92.03,1.65-.35,2.06-1.04.42-.7.44-1.6.04-2.31-.39-.69-1.11-1.08-2.04-1.09-.11,0-5.19.04-7.36.06h-1.24s-.08-.09-.08-.09c-1.05-1.46-1.9-2.85-2.6-4.23l-.17-.34.38-.02s.7,0,3.01.03c1.93.02,4.33.05,4.44.04,1.51-.03,2.28-1.14,2.26-2.22-.01-1.03-.73-2.07-2.3-2.07h-4.31l.23-.38c1.29-2.12,2.75-4.53,2.08-5.88-.35-.72-1.29-1.15-2.85-1.33-1.93,0-2.78,2.67-3.47,4.81-.38,1.19-.71,2.22-1.18,2.7l-.07.08h-3.8l.07-.3c.35-1.61.73-2.93,1.03-3.99.54-1.88.86-3.01.45-3.71-.32-.55-1.12-.92-2.76-1.29-2.61.06-2.83,2.58-3.07,5.26-.13,1.4-.25,2.85-.77,3.89l-.07.14h-3.09l.39-.42c.75-.8.57-1.92.29-2.72-.72-2.07-2.83-4.09-4.53-4.37-1.57.33-2.45.78-2.68,1.38-.31.79.5,1.93,1.43,3.24.54.76,1.14,1.61,1.62,2.52l.19.37h-2.99s-.03,0-.04,0c-.93,0-1.66.37-2.06,1.06-.39.66-.4,1.51-.02,2.17.39.68,1.12,1.06,2.05,1.07.09,0,2.26-.02,4.16-.04,2.46-.02,3.54-.04,3.58-.03h.36s-.14.35-.14.35c-.56,1.32-1.24,2.85-2.08,4.23l-.07.11h-.13s-.74,0-3.18-.02c-2.01-.02-4.49-.04-4.63-.04-1.51.01-2.2,1.15-2.19,2.21,0,1.07.69,2.22,2.18,2.22.11,0,1.3-.04,2.26-.08,1.78-.07,2.13-.08,2.18-.07l.45.05-.29.36c-2.18,2.72-5.23,5.01-7.94,6.9l-.39.27v-22.95c.06-1.72-.45-3.1-1.52-4.1-1.5-1.41-4.1-2.06-7.12-1.76-4.96,0-8.03.93-8.03,5.57.02,1.38.06,2.8.09,4.26.06,2.72.13,5.52.13,8.41.42,10.6-1.81,20.13-6.45,27.57ZM260.16,38.56c1.03.04,1.82-.27,2.41-.92.78-.86,1.11-2.31.89-3.88l-.04-.29h12.07l-.04.28c-.15,1.18.24,2.15,1.1,2.72,1.01.67,2.54.69,3.65.04.98-.57,1.48-1.56,1.39-2.77l-.02-.27h15.45c2.01,0,3.07-1.43,3.07-2.84,0-1.3-.96-2.7-3.07-2.7h-15.44l.02-.27c.12-1.79.12-3.76-.88-4.8-.51-.53-1.23-.77-2.18-.75-.94-.02-1.67.23-2.18.76-1.04,1.1-1.01,3.26-.89,4.79l.02.27h-12.03l.02-.27c.12-1.66.14-3.69-.88-4.77-.52-.55-1.28-.8-2.25-.78-1.03-.02-1.74.23-2.26.78-1.02,1.07-1.01,3.11-.88,4.77l.02.27h-15.08c-2.21,0-3.21,1.44-3.21,2.77s1.1,2.77,3.21,2.77h15.09l-.03.28c-.14,1.29-.11,3.03.82,4.03.5.54,1.21.81,2.17.78ZM274.31,87.66c-2.97,0-4.55-1.5-4.78-3.11-.21-1.41.6-3.03,2.53-3.4h.05s.05,0,.05,0c2,.45,3.16.43,3.76-.08.75-.64.81-2.1.65-4.74,0-4.05,0-9.69-.07-12.02h0c0-2,1.54-2.91,2.98-2.91,3.27,0,3.27,2.64,3.27,4.97,0,1.96-.03,4.43-.05,6.23-.01,1.04-.02,1.86-.02,2.24,0,.67.04,1.38.08,2.1.16,3.25.33,6.6-1.66,8.7-1.23,1.31-3.13,1.95-5.81,1.97-.34.03-.66.05-.97.05ZM272.1,81.65c-1.59.33-2.25,1.67-2.08,2.83.21,1.43,1.71,2.99,5.23,2.64,2.56-.02,4.34-.61,5.47-1.81,1.84-1.95,1.68-5.2,1.53-8.34-.04-.73-.07-1.44-.08-2.12,0-.38,0-1.2.02-2.25.02-1.8.05-4.27.05-6.23,0-2.4,0-4.47-2.77-4.47-1.23,0-2.47.74-2.48,2.4.07,2.33.08,7.97.07,12.01.17,2.79.09,4.36-.82,5.14-.74.63-1.98.69-4.14.2ZM296.08,84.83c-.71,0-1.44-.3-2.11-.89l-.03-.03c-1.22-1.43-3.63-2.44-5.77-3.34-2.68-1.12-4.99-2.09-4.83-3.7.18-1.16.69-1.96,1.53-2.39,2.68-1.35,7.99,1.43,11.5,3.28.37.19.72.38,1.03.54,1.21.72,1.83,1.89,1.74,3.23-.1,1.38-.94,2.62-2.08,3.1-.32.13-.65.2-.99.2ZM294.31,83.58c1.07.92,1.99.83,2.57.59.96-.4,1.69-1.49,1.78-2.67.05-.67-.08-1.93-1.48-2.76-.3-.16-.65-.34-1.02-.53-3.22-1.69-8.6-4.51-11.05-3.27-.7.35-1.11,1.01-1.26,2.01-.13,1.23,2.13,2.17,4.52,3.18,2.18.91,4.65,1.95,5.94,3.46ZM264,84h0c-1.67,0-2.77-1.35-3-2.68-.24-1.39.45-2.58,1.74-3.04,4.17-1.34,5.7-2.31,8.78-4.39.74-.55,1.67-.63,2.48-.22.9.46,1.46,1.44,1.45,2.5,0,1.01-.43,1.84-1.28,2.48-6.31,4.83-9.22,5.35-10.17,5.35ZM272.94,73.91c-.39,0-.78.13-1.13.39-3.13,2.11-4.69,3.1-8.91,4.46-1.27.45-1.56,1.58-1.41,2.48.19,1.12,1.11,2.26,2.51,2.26.71,0,3.5-.38,9.87-5.25.73-.54,1.08-1.23,1.08-2.08.01-.87-.45-1.67-1.17-2.05-.27-.14-.55-.21-.83-.21ZM254.75,63.96h-6.48v-.26c.08-2.21.08-4.49.08-6.7v-.25h6.39v7.21ZM248.79,63.46h5.46v-6.21h-5.39c0,2.05,0,4.15-.07,6.21ZM283.38,56.01h-6.73l.17-.36c.58-1.23,1.15-2.54,1.83-4.26l.06-.16h2.25l.06.16c.51,1.31,1.24,2.78,2.12,4.24l.23.38ZM277.44,55.51h5.06c-.75-1.3-1.4-2.59-1.87-3.77h-1.58c-.6,1.49-1.11,2.67-1.62,3.77ZM254.7,51.88h-6.41l.07-.31c.1-.42.05-1.25-.01-2.13-.12-1.76-.26-3.95.66-4.92.32-.34.75-.51,1.26-.51h.03c1.78-.23,2.94-.04,3.63.6.91.84.83,2.31.74,4.01-.05.92-.1,1.95,0,2.99l.03.27ZM248.89,51.38h5.26c-.07-.98-.02-1.93.02-2.79.08-1.57.15-2.93-.58-3.61-.56-.52-1.63-.68-3.26-.47-.44-.02-.73.11-.96.36-.77.81-.63,2.88-.52,4.54.05.78.1,1.47.05,1.97Z"/>
            </g>
            <g>
              <path class="cls-1" d="M372.82,78.08c4.36,0,4.29,6.68.07,6.7-15.42.37-31.33.4-46.56.07-14.45-.23-8.79-17.15-10.02-27.19,0-7.88.15-15.91.3-23.14.07-4.72,3.61-7.96,9.14-8.03,13.19-.22,31.6-.22,44.94,0,4.31,0,4.37,6.4,0,6.41-9.5-.07-21-.15-30.5-.15-5.91.76-17.43-2.7-16.72,5.08-.29,11.62-.3,24.03,0,35.44.15,4.2,1.62,4.86,6.11,5.01,13.93.28,28.57.11,43.25-.22ZM367.59,57.75l-14.88-.22c3.46,5.6,9.36,9.5,15.1,11.49,3.98,1.31,3.3,6.85-.88,6.93-4.13,0-14.07-6.78-18.49-14.74-7.42,14.16-22.86,18.62-22.84,11.79.21-5.34,13.21-2.73,17.61-15.55l-13.93.29c-2,.05-3.03-1.38-3.02-2.87,0-1.47,1.03-3.02,3.02-3.02h15.25c.3-2.37.31-4.64.3-7.22h-7.29c-3.61,5.38-5.01,5.75-6.26,5.75-2.55.03-4.69-2.6-2.65-4.57,3.32-3.46,5.01-6.26,6.85-10.83.52-1.18,1.47-1.62,2.58-1.62,3.08.44,4.6,1.83,2.73,5.45h22.18c3.86.02,3.8,5.81,0,5.82,0,0-11.27,0-11.27,0,0,.88-.07,5.45-.37,7.22h16.28c3.97-.02,3.9,5.97,0,5.89Z"/>
              <path class="cls-1" d="M347.84,85.33c-7.27,0-14.5-.07-21.52-.22-3.31-.05-5.74-.95-7.43-2.75-3.34-3.55-3.06-9.93-2.79-16.11.14-3.1.26-6.02-.05-8.55,0-8.06.15-16.19.29-23.17.08-4.95,3.76-8.2,9.38-8.28,12.96-.22,31.44-.22,44.95,0h0c2.29,0,3.49,1.74,3.5,3.46,0,1.66-1.09,3.44-3.5,3.45-12.79-.1-22.77-.15-30.5-.15-.6.08-1.25.11-1.95.12,1.78.28,2.86.86,3.33,1.78.47.91.34,2.1-.39,3.64h21.77c2.15.01,3.13,1.65,3.12,3.15,0,1.57-1.08,3.16-3.12,3.17h-11.02c-.01,1.17-.08,4.9-.33,6.72h15.99c1.19-.02,2.2.52,2.76,1.5.59,1.03.58,2.42-.02,3.45-.57.96-1.55,1.48-2.74,1.45l-14.42-.21c3.14,4.84,8.48,8.84,14.73,11,2.25.74,3.01,2.68,2.77,4.28-.23,1.53-1.47,3.09-3.73,3.13-4.07,0-13.83-6.45-18.49-14.47-2.55,4.71-6.27,8.79-10.51,11.54-3.75,2.43-7.61,3.56-10.06,2.96-1.63-.41-2.53-1.55-2.53-3.24.09-2.35,2.41-3.25,5.34-4.38,4.04-1.56,9.54-3.69,12.16-10.91l-13.56.29s-.07,0-.1,0c-.92,0-1.71-.3-2.28-.87-.58-.57-.9-1.39-.89-2.26,0-1.58,1.15-3.27,3.27-3.27h15.03c.26-2.13.28-4.16.27-6.72h-6.91c-3.58,5.31-5.02,5.75-6.4,5.75h-.04c-1.51,0-2.97-.9-3.49-2.15-.41-.99-.15-2.03.7-2.85,3.18-3.32,4.89-6.03,6.79-10.74.45-1.02,1.25-1.62,2.34-1.75-.97-.01-2.01-.07-3.08-.12-3.96-.2-8.06-.41-9.87,1.47-.76.79-1.06,1.88-.93,3.35-.3,12.01-.3,24.26,0,35.46.14,3.98,1.45,4.62,5.87,4.77,12.19.24,25.93.17,43.23-.22h.01c2.39,0,3.49,1.86,3.5,3.58,0,1.79-1.17,3.61-3.43,3.62-8.22.2-16.67.3-25.05.3ZM348.02,26.59c-7.93,0-15.8.05-22.28.16-5.33.07-8.82,3.13-8.89,7.78-.14,6.98-.29,15.11-.3,23.13.31,2.54.19,5.48.05,8.6-.27,6.07-.54,12.35,2.66,15.74,1.59,1.69,3.91,2.54,7.07,2.59,15.1.32,31.2.3,46.55-.07,2.02-.01,2.94-1.63,2.93-3.12,0-1.49-.94-3.08-3-3.08h0c-17.31.4-31.05.46-43.26.22-4.64-.15-6.21-.93-6.36-5.25-.3-11.21-.3-23.46,0-35.45-.14-1.57.21-2.83,1.06-3.71,1.97-2.04,6.18-1.83,10.25-1.62,2.08.11,4.05.21,5.62,0h.48c7.7,0,17.53.05,30.06.15,2.07,0,3-1.53,3-2.95,0-1.43-.94-2.96-3-2.96h0c-6.75-.11-14.74-.16-22.66-.16ZM343.55,57.19l-.12.34c-2.64,7.71-8.38,9.93-12.57,11.55-2.87,1.11-4.94,1.91-5.02,3.93,0,1.44.74,2.39,2.15,2.74,4.53,1.12,14.65-4.03,20.22-14.66l.21-.41.23.4c1.98,3.56,5.36,7.3,9.29,10.27,3.53,2.67,6.98,4.33,8.99,4.33,2.1-.04,3.06-1.48,3.24-2.71.21-1.39-.46-3.08-2.44-3.73-6.52-2.26-12.08-6.49-15.24-11.6l-.24-.39,15.34.23c.99.02,1.83-.41,2.3-1.21.52-.88.53-2.06.02-2.94-.46-.8-1.28-1.24-2.3-1.24h-16.6l.05-.29c.3-1.78.37-6.4.37-7.18v-.25h11.52c1.8,0,2.62-1.39,2.62-2.67,0-1.27-.82-2.64-2.62-2.65h-22.59l.19-.36c.8-1.54.99-2.74.57-3.55-.41-.8-1.43-1.3-3.11-1.54-1.1,0-1.89.5-2.31,1.47-1.93,4.77-3.67,7.53-6.9,10.9-.71.69-.92,1.5-.59,2.3.44,1.08,1.75,1.85,3.06,1.84,1.2,0,2.56-.43,6.06-5.64l.08-.11h7.68v.25c.01,2.79,0,4.94-.3,7.25l-.03.22h-15.47c-1.82,0-2.77,1.39-2.77,2.77,0,.74.26,1.43.75,1.9.5.49,1.21.75,2.02.72l14.28-.3Z"/>
            </g>
            <g>
              <path class="cls-1" d="M394.19,87.95c-1.84,0-3.61-1.1-3.61-3.24,0-13.41.07-37.65.37-53.2-.36-8.67,8.21-6.86,14.74-6.93,4.2.15,6.34,2.43,6.34,5.6,0,1.4-.44,3.61-4.35,12.01-.37.74-.52,1.4-.52,2.06,1.4,5.15,5.59,6.94,5.16,14.37,0,6.41-4.05,11.2-9.28,11.2-1.25,0-5.08-.29-5.08-3.54,0-1.62,1.11-3.17,2.65-3.17,2.92.77,5.12-.01,5.3-5.01.58-6.93-7.7-11.36-3.83-18.05,1.62-3.54,2.95-7.96,2.95-8.47,0-.88-.37-1.47-3.02-1.47s-4.2.07-4.2,2.58c-.19,7.97-.15,54.27-.15,52.02,0,2.14-1.77,3.24-3.46,3.24ZM405.24,84.12c1.89-7.15,14.42-2.7,16.72-20.63.63-4.68,7.73-3.11,6.93,1.11-3.73,20.66-22.97,27.5-23.65,19.52ZM445.02,43.45v-3.02c.69-5.34-9.51-2.73-13.26-3.39-4,.67-13.37-1.89-13.04,3.17,0,0,0,3.17,0,3.17,0,4.13-6.78,4.13-6.78,0-1.03-12.49,3.68-12.2,15.77-12.08.04-3.16-1.17-8.93,3.68-8.77,4.81-.15,3.66,5.61,3.68,8.77,11.79.05,18.28-1.26,16.95,12.08-.21,4.06-7.02,4.34-7,.07ZM446.72,73.37c.02-4.07,6.79-4.16,6.93.59,0,10.46-3.98,12.45-11.94,12.45s-9.65-3.17-9.65-8.47c0-2.51.07-13.78.22-18.64l-16.58.15c-3.98-.01-4.05-6.09,0-6.12,0,0,33.45,0,33.45,0,3.79-.02,3.84,6.12.07,6.12-.07,0-10.02-.15-10.09-.15-.07,4.42-.3,13.04-.3,16.65,0,1.99.3,3.83,2.95,3.83,4.51.22,5.06-1.96,4.94-6.41ZM423.07,48.24c-4.13,0-4.13-5.89,0-5.89h17.76c1.92,0,2.87,1.47,2.87,2.95s-.96,2.95-2.87,2.95h-17.76Z"/>
              <path class="cls-1" d="M394.19,88.2c-1.86,0-3.86-1.09-3.86-3.49,0-5.64.02-34.73.37-53.2-.1-2.33.43-4.05,1.61-5.24,2.22-2.25,6.35-2.12,10.33-1.99,1.01.03,2.07.07,3.04.06,4.13.15,6.59,2.33,6.59,5.85,0,1.37-.34,3.44-4.37,12.11-.33.66-.49,1.27-.49,1.92.52,1.88,1.44,3.34,2.32,4.75,1.18,1.88,2.4,3.82,2.76,6.79.23-1.38,1.25-2.68,3.21-2.7h33.47c1.13,0,2.06.52,2.61,1.47.65,1.11.65,2.59.02,3.7-.54.93-1.45,1.45-2.58,1.45,0,0,0,0-.02,0-.15,0-1.21-.02-6.12-.09-1.65-.03-3.14-.05-3.71-.06-.03,1.45-.06,3.29-.11,5.25-.09,4.1-.18,8.74-.18,11.14,0,2.27.44,3.58,2.7,3.58,1.78.09,2.92-.19,3.63-.89.98-.96,1.13-2.72,1.06-5.27h0c.01-2.22,1.81-3.25,3.47-3.27h.05c1.84,0,3.83,1.2,3.9,3.84,0,10.68-4.28,12.71-12.19,12.71-7.03,0-9.9-2.53-9.9-8.72,0-2.2.07-13.29.21-18.39l-16.32.15c-1.68,0-2.74-1.04-3.11-2.28,0,.39,0,.8-.03,1.23,0,3.13-.97,6.03-2.74,8.15-1.77,2.12-4.18,3.29-6.79,3.29-1.08,0-4.29-.21-5.13-2.54,0,8.99,0,16.34,0,17.17h0v.04h0v.04h0c-.04,2.24-1.89,3.42-3.71,3.42ZM399.87,24.73c-2.92,0-5.63.3-7.21,1.9-1.08,1.09-1.55,2.68-1.46,4.88-.35,18.48-.37,47.56-.37,53.21,0,2.05,1.74,2.99,3.36,2.99s3.21-1.03,3.21-2.99h.05c-.07-.92-.06-4.92-.04-23.05.01-10.99.05-24.94.14-28.97,0-2.82,1.87-2.82,4.45-2.82,2.42,0,3.27.45,3.27,1.72,0,.57-1.35,5.04-2.97,8.58-2.13,3.69-.47,6.68,1.29,9.84,1.38,2.48,2.82,5.05,2.56,8.13-.09,2.47-.67,4.07-1.77,4.88-.91.67-2.16.79-3.82.36-1.42.02-2.37,1.52-2.37,2.92,0,3.05,3.7,3.29,4.83,3.29,2.46,0,4.74-1.1,6.41-3.11,1.69-2.03,2.62-4.81,2.62-7.84.26-4.58-1.2-6.91-2.76-9.38-.91-1.45-1.86-2.95-2.39-4.92v-.07c0-.74.16-1.43.53-2.17,3.99-8.57,4.32-10.64,4.32-11.9,0-3.22-2.28-5.22-6.09-5.35-.99,0-2.03-.02-3.05-.06-.92-.03-1.85-.06-2.75-.06ZM432.53,59.04v.26c-.16,4.97-.23,16.39-.23,18.63,0,6.82,3.76,8.22,9.4,8.22,7.75,0,11.69-1.89,11.69-12.2-.07-2.31-1.8-3.35-3.4-3.35h-.04c-1.43.02-2.97.89-2.98,2.76.08,2.67-.1,4.55-1.21,5.63-.81.8-2.07,1.12-3.99,1.03-2.8,0-3.18-1.96-3.18-4.08,0-2.41.1-7.05.19-11.16.04-2.07.08-4.02.11-5.5v-.24s.24,0,.24,0c.03,0,.91.01,3.97.06,2.68.04,6.02.1,6.12.09h0c.94,0,1.7-.43,2.15-1.2.54-.94.53-2.25-.02-3.2-.46-.79-1.23-1.22-2.18-1.22h-33.47c-1.9.01-2.77,1.46-2.76,2.8,0,1.35.87,2.81,2.77,2.82l16.83-.15ZM402,30.37c-2.81,0-3.95.09-3.95,2.33-.1,4.31-.14,19.49-.15,32.36.4-1.19,1.36-2.18,2.7-2.18h.06c1.52.41,2.64.32,3.42-.26.96-.71,1.48-2.23,1.57-4.51.25-2.94-1.15-5.44-2.5-7.85-1.83-3.29-3.57-6.4-1.3-10.31,1.67-3.65,2.91-7.93,2.91-8.35,0-.57,0-1.22-2.77-1.22ZM409.2,87.61c-.1,0-.2,0-.3,0-2.3-.11-3.73-1.37-3.91-3.46v-.04s0-.04,0-.04c.75-2.82,3.06-3.9,5.73-5.14,4.27-1.99,9.58-4.46,10.99-15.46.18-1.37.92-2.37,2.08-2.82,1.34-.52,3.01-.23,4.17.73,1,.83,1.42,1.99,1.17,3.27-2.8,15.51-14.11,22.97-19.94,22.97ZM405.49,84.14c.17,1.81,1.39,2.87,3.43,2.96.1,0,.19,0,.29,0,5.67,0,16.69-7.33,19.43-22.56.21-1.09-.15-2.09-1-2.8-1.01-.83-2.51-1.1-3.67-.65-.69.27-1.56.91-1.76,2.42-1.45,11.27-6.9,13.81-11.27,15.85-2.55,1.19-4.75,2.21-5.45,4.77ZM440.82,48.49h-17.76c-1.3,0-2.33-.55-2.91-1.55-.58-1-.58-2.29,0-3.29.58-1,1.61-1.55,2.91-1.55h17.76c2.05,0,3.12,1.61,3.12,3.2s-1.07,3.2-3.12,3.2ZM423.07,42.6c-1.11,0-1.99.46-2.48,1.3-.49.85-.49,1.94,0,2.79.49.84,1.37,1.3,2.48,1.3h17.76c1.8,0,2.62-1.4,2.62-2.7s-.82-2.7-2.62-2.7h-17.76ZM448.32,46.79s-.08,0-.13,0c-1.71-.05-3.44-1.1-3.42-3.33v-3.02c.11-.87-.06-1.51-.5-1.99-1.34-1.45-4.94-1.27-8.11-1.12-1.7.08-3.3.16-4.4-.02-1.2.19-2.83.11-4.54.03-2.97-.15-6.34-.31-7.66,1.02-.45.46-.64,1.06-.59,1.85v3.18c0,2.2-1.83,3.34-3.64,3.34s-3.64-1.15-3.64-3.34c-.42-5.1.13-8.17,1.78-9.95,2.33-2.5,6.81-2.46,13.58-2.39h.41c0-.45-.02-.94-.05-1.46-.1-2.31-.22-4.94,1.17-6.35.66-.67,1.62-.98,2.82-.95,1.18-.03,2.12.28,2.79.95,1.41,1.43,1.29,4.21,1.19,6.44-.02.49-.04.95-.05,1.38.94,0,1.84,0,2.71,0,5.91-.04,10.17-.06,12.5,2.49,1.67,1.84,2.23,4.98,1.74,9.88-.11,2.21-2.1,3.38-3.95,3.38ZM439.22,36.72c2.28,0,4.38.26,5.42,1.38.55.59.76,1.39.64,2.36v2.99c0,2.03,1.58,2.79,2.94,2.83.04,0,.08,0,.12,0,1.66,0,3.34-.99,3.44-2.92.47-4.76-.04-7.78-1.61-9.5-2.17-2.39-6.34-2.36-12.12-2.33-.95,0-1.93.01-2.96,0h-.25s0-.25,0-.25c0-.5.02-1.06.05-1.65.1-2.13.21-4.79-1.04-6.07-.57-.57-1.36-.84-2.43-.8-1.09-.03-1.9.23-2.46.8-1.24,1.26-1.12,3.87-1.03,5.98.03.63.05,1.22.05,1.75v.25s-.92,0-.92,0c-6.64-.07-11.03-.11-13.21,2.23-1.55,1.67-2.06,4.63-1.65,9.59,0,1.97,1.63,2.86,3.14,2.86s3.14-.89,3.14-2.84v-3.17c-.06-.91.19-1.66.73-2.21,1.48-1.5,4.81-1.33,8.04-1.17,1.71.08,3.33.17,4.48-.03h.04s.04,0,.04,0c1.04.18,2.64.11,4.33.02,1.01-.05,2.07-.1,3.08-.1Z"/>
            </g>
          </g>
          <g>
            <g>
              <path class="cls-1" d="M222.68,120.42c.16,4.19,10.73,5.82,10.87-.51.17-6.04-12.23-6.15-11.77-12.41,0-2.76,2.24-5.32,6.25-5.32,1.88-.02,3.45.47,4.65,1.35.28-.42.1-1.26,1.03-1.22,1.8.13.49,3.75.93,5.19.07,1.19-1.86,1.23-1.86.06.01-.46.04-.52.03-.77-1.94-6.46-14.87-1.1-6.32,4.39,16.95,5.61,6.86,20.41-3.59,12.73-.63-.36.27,2.03-1.15,1.86-1.93-.21-.47-4.52-.96-5.96-.03-1.41,2.31-1.22,1.89.61Z"/>
              <path class="cls-1" d="M228.9,126.59c-1.89,0-3.88-.64-5.77-1.9-.02.45-.08.99-.47,1.33-.25.22-.58.3-.97.25-1.71-.19-1.53-2.39-1.38-4.15.07-.85.15-1.72,0-2.14l-.03-.15c-.01-.57.27-1.05.74-1.29.51-.25,1.15-.18,1.61.18.49.39.69,1.02.55,1.75.13,1.88,2.9,3.16,5.37,3.16.02,0,.04,0,.06,0,1.02,0,4.36-.3,4.43-3.72.08-2.67-2.68-4.09-5.59-5.6-3.16-1.64-6.43-3.33-6.17-6.83,0-2.86,2.32-5.78,6.75-5.78,1.62,0,3.15.36,4.39,1.08.12-.41.39-1,1.31-.95.42.03.75.19,1,.48.59.69.48,1.93.38,3.13-.06.74-.13,1.51,0,1.94l.02.12c.03.51-.2.95-.61,1.21-.46.29-1.1.31-1.58.04-.43-.24-.67-.66-.67-1.17,0-.24.02-.37.02-.48,0-.08,0-.13,0-.21-.72-2.28-2.86-2.53-3.77-2.53h-.02c-2.03,0-3.94,1.09-4.34,2.47-.36,1.24.54,2.63,2.54,3.92,5.56,1.86,8.96,5.01,9.33,8.65.25,2.52-1.03,4.9-3.33,6.21-1.17.67-2.46.99-3.81.99ZM222.79,123.38c.1,0,.23.03.36.1,3.09,2.27,6.46,2.72,9.06,1.24,1.96-1.12,3.04-3.12,2.83-5.24-.32-3.25-3.5-6.1-8.71-7.82l-.11-.05c-3.29-2.11-3.3-4.09-3.01-5.08.53-1.81,2.8-3.18,5.3-3.19,2.35-.03,4.15,1.23,4.78,3.31l.02.12c0,.15,0,.25-.01.38,0,.1-.02.22-.02.42,0,.13.05.22.16.28.16.09.4.08.56-.01.1-.06.14-.14.15-.26-.16-.6-.09-1.4-.02-2.25.08-.9.17-2.02-.15-2.39-.05-.05-.12-.12-.3-.13-.23-.01-.23,0-.33.38-.05.19-.11.42-.24.61l-.29.43-.42-.3c-1.15-.83-2.68-1.25-4.35-1.25-3.78,0-5.76,2.43-5.76,4.82-.21,2.88,2.63,4.35,5.63,5.91,3.06,1.58,6.23,3.22,6.13,6.52-.07,3.43-2.85,4.68-5.42,4.7-.03,0-.05,0-.08,0-3,0-6.27-1.59-6.37-4.18v-.07s.01-.06.01-.06c.08-.37.02-.66-.17-.81-.15-.12-.38-.15-.55-.07-.11.06-.17.16-.18.31.18.62.1,1.51.02,2.46-.14,1.64-.2,3,.49,3.08.1.01.17,0,.2-.02.12-.1.13-.58.13-.81,0-.41.02-.8.36-1,.06-.04.16-.08.29-.08Z"/>
            </g>
            <g>
              <path class="cls-1" d="M251.89,123.66c-5.96,6.57-15.66-2.08-6.89-6,1.77-.92,6.86-.7,6.48-2.21.11-4.58-5.57-3.27-7.76-1.28-2.81-1.2,1.57-3.59,4.55-3.46,5.78-.36,5.07,5.44,4.81,9.75-.22,4.04,1.35,2.56,2.05,4.36-.33,1.94-2.99.37-3.24-1.15ZM251.41,118.75c0-.34.07-.86-.42-.77-5.03.8-7.69,1.44-7.69,3.69.63,4.18,8.36,3.95,8.11-2.92Z"/>
              <path class="cls-1" d="M246.88,126.55c-.77,0-1.54-.14-2.3-.41-2.09-.77-3.53-2.49-3.59-4.29-.04-1.08.41-3.13,3.8-4.64.74-.38,1.98-.57,3.19-.76,1.09-.17,2.75-.42,3-.81l-.02-.07v-.13c.03-1.18-.36-1.97-1.17-2.34-1.56-.71-4.37.19-5.75,1.44l-.24.22-.29-.13c-1.24-.53-1.27-1.29-1.17-1.69.35-1.53,3.68-2.81,5.94-2.73,1.67-.11,3,.3,3.91,1.22,1.84,1.85,1.62,5.3,1.42,8.34l-.04.72c-.12,2.26.31,2.51.82,2.81.39.23.88.52,1.2,1.34l.05.13-.02.14c-.14.83-.67,1.32-1.42,1.32h0c-.92,0-1.97-.75-2.49-1.66-1.42,1.31-3.1,2-4.82,2ZM251.97,115.4c.05.28,0,.55-.16.78-.5.75-1.97.98-3.68,1.25-1.13.17-2.29.35-2.91.67-2.15.96-3.29,2.27-3.24,3.71.05,1.4,1.23,2.76,2.94,3.38,2.3.85,4.76.14,6.59-1.88l.7-.77.17,1.02c.13.79,1.18,1.64,1.82,1.64.09,0,.31,0,.41-.35-.18-.39-.41-.53-.72-.71-.86-.5-1.46-1.07-1.31-3.73l.05-.72c.18-2.83.39-6.04-1.13-7.57-.71-.71-1.76-1.01-3.19-.93-2.27-.07-4.8,1.19-4.98,1.96-.04.16.13.3.32.41,1.7-1.37,4.69-2.25,6.57-1.38.82.38,1.79,1.24,1.76,3.21ZM246.83,124.94c-1.83,0-3.71-1.04-4.03-3.19,0-2.77,3.06-3.45,8.11-4.26.34-.07.57.05.7.17.32.27.31.72.3,1.01l-.5.09.5-.02c.14,3.96-2.22,5.96-4.63,6.18-.15.01-.3.02-.44.02ZM250.91,118.5c-5.02.81-7.12,1.44-7.12,3.17.25,1.64,1.89,2.39,3.39,2.25,1.8-.17,3.85-1.62,3.72-5.15v-.14s0-.08,0-.13Z"/>
            </g>
            <g>
              <path class="cls-1" d="M264.97,112.76c-1.08-.28-.36,5.41-.61,7.34,0,2.5.06,4.2,2.57,4.2.68-.06,1.82-.24,1.8.77,0,.83-.77.99-2.05.99-6.5-.12-3.4-9-4.04-12.44-.03-.38.14-.91-.32-.87,0,0-1.89,0-1.89,0-1.19.01-1.22-1.7,0-1.7h1.86c.75.04.23-2.74.39-3.91.03-1.26,1.89-1.24,1.86.06.17,1.32-.55,4.1.42,3.85.72.18,3.88-.57,3.75.83.14,1.44-2.97.69-3.72.87Z"/>
              <path class="cls-1" d="M266.67,126.56c-1.47-.03-2.6-.48-3.38-1.33-1.66-1.83-1.41-5.07-1.19-7.93.11-1.4.21-2.71.05-3.58-.02-.16-.01-.29,0-.41,0-.02,0-.04,0-.05h-1.71c-.54.01-.97-.23-1.21-.65-.25-.42-.25-.96,0-1.38.24-.42.68-.66,1.21-.66h1.73c.09-.34.05-1.22.02-1.78-.03-.64-.06-1.25,0-1.7.02-.87.75-1.36,1.43-1.36h.03c.71.02,1.41.54,1.39,1.5.06.44.01,1.11-.04,1.76-.04.49-.1,1.27-.03,1.58h.11c.13.05.58.02.94,0,1.08-.06,2.3-.14,2.89.47.23.24.34.55.3.91.05.37-.14.67-.31.85-.59.61-1.8.54-2.88.48-.35-.02-.78-.05-.92-.01h-.06c-.23.55-.17,2.63-.14,3.89.03,1.19.06,2.32-.03,3.02,0,2.68.17,3.64,2.07,3.64h.1c.56-.06,1.34-.14,1.83.32.17.16.38.46.37.96,0,1.48-1.66,1.48-2.55,1.48ZM262.4,112.25c.22,0,.39.1.49.2.27.26.25.63.24.9,0,.08,0,.16,0,.23.18.94.07,2.33-.04,3.79-.2,2.66-.43,5.68.94,7.18.6.66,1.46.99,2.65,1.01,1.54,0,1.54-.27,1.54-.49,0-.08,0-.18-.05-.22-.16-.15-.74-.09-1.05-.06h-.15s0,.01,0,.01c-3.1,0-3.1-2.39-3.1-4.7.08-.69.06-1.78.03-2.93-.08-2.94-.05-4.28.54-4.75.16-.12.34-.18.54-.16.27-.04.64-.02,1.1.01.64.04,1.83.11,2.09-.17.01-.01.04-.04.03-.15,0-.18-.01-.21-.03-.22-.27-.28-1.47-.2-2.11-.17-.46.03-.84.05-1.12.01-.23.02-.45-.03-.62-.18-.49-.41-.42-1.33-.33-2.49.05-.6.09-1.21.04-1.62,0-.52-.32-.56-.42-.56-.07,0-.43,0-.44.44-.05.42-.03,1.01,0,1.58.06,1.35.08,2.2-.34,2.6-.15.15-.37.23-.57.22h-1.83s0,0,0,0c-.17,0-.29.05-.35.16-.06.11-.06.26,0,.38.06.11.18.16.34.16h1.9s.06,0,.08,0ZM262.36,113.26h0,0ZM262.26,110.56h.02-.02Z"/>
            </g>
            <g>
              <path class="cls-1" d="M274.11,118.37c-.18-10.12,15.03-10.07,14.88,0,.34,10.09-15.25,10.14-14.88,0ZM287.09,118.37c.17-7.87-11.31-7.9-11.12,0-.18,7.89,11.29,7.86,11.12,0Z"/>
              <path class="cls-1" d="M281.52,126.46c-1.53,0-3.06-.39-4.37-1.16-2.39-1.42-3.65-3.88-3.55-6.93-.05-3.07,1.25-5.53,3.65-6.94,2.54-1.49,5.97-1.49,8.53,0,2.43,1.42,3.74,3.88,3.69,6.96.1,3.02-1.17,5.49-3.59,6.92-1.31.77-2.84,1.16-4.37,1.16ZM281.52,111.3c-1.32,0-2.63.33-3.75.99-2.08,1.22-3.21,3.38-3.16,6.07v.03c-.1,2.67.99,4.81,3.06,6.05,2.3,1.37,5.4,1.37,7.72,0,2.09-1.23,3.19-3.38,3.1-6.05.04-2.72-1.1-4.87-3.2-6.1-1.13-.66-2.45-.99-3.76-.99ZM281.52,124.78c-1.11,0-2.22-.29-3.19-.85-1.9-1.12-2.91-3.09-2.86-5.57-.06-2.45.96-4.43,2.86-5.55,1.93-1.14,4.44-1.14,6.39,0,1.91,1.12,2.93,3.09,2.88,5.56.05,2.47-.97,4.44-2.88,5.56-.97.57-2.08.85-3.19.85ZM281.52,112.96c-.94,0-1.88.24-2.69.71-1.57.93-2.41,2.59-2.36,4.69-.05,2.12.79,3.78,2.37,4.7,1.6.94,3.76.94,5.37,0,1.58-.93,2.43-2.59,2.39-4.68v-.02c.04-2.1-.8-3.76-2.39-4.69-.8-.47-1.75-.71-2.69-.71Z"/>
            </g>
            <g>
              <path class="cls-1" d="M318.84,126.03c-19.77-.71-11.47-31.83,6.16-22.02.56.08-.21-1.62,1.12-1.51,1.88.14.5,4.16.96,5.64,0,1.25-1.88,1.23-1.89.03-1.03-7.27-16.3-4.91-15.84,5.96-.1,9.69,10.92,13.25,17.63,6.15,3.61,1.3-2.3,5.73-8.14,5.74Z"/>
              <path class="cls-1" d="M318.83,126.53h0c-7.65-.27-10.34-4.81-11.26-7.49-1.75-5.11.01-11.55,4.12-14.99,2.1-1.76,6.55-4.14,13.08-.74.03-.33.09-.75.43-1.04.24-.21.57-.3.97-.27.4.03.74.2.99.49.63.73.52,2.1.41,3.43-.07.81-.13,1.64,0,2.08l.02.15c0,.94-.72,1.43-1.44,1.43h0c-.7,0-1.44-.49-1.45-1.4-.43-3.05-3.59-3.88-6.18-3.64-4.49.41-8.91,3.84-8.66,9.58-.04,4.09,1.99,7.34,5.44,8.74,3.77,1.52,8.21.38,11.33-2.91l.22-.24.31.11c1.48.53,1.48,1.52,1.41,1.93-.36,2.1-5.01,4.77-9.72,4.78h0ZM318.36,102.6c-2.22,0-4.27.74-6.04,2.22-3.8,3.18-5.44,9.15-3.81,13.9,1.44,4.21,5.12,6.62,10.34,6.81,4.29-.01,8.47-2.47,8.73-3.95.02-.12.07-.42-.47-.69-3.38,3.4-8.13,4.53-12.19,2.9-3.85-1.55-6.11-5.16-6.07-9.65-.27-6.34,4.61-10.14,9.57-10.59,3.9-.36,6.83,1.47,7.26,4.56,0,.45.37.45.46.47.13,0,.41-.04.44-.37-.16-.62-.09-1.47-.02-2.37.08-1.02.19-2.28-.17-2.7-.05-.06-.13-.13-.31-.14-.16-.02-.22.01-.24.03-.07.06-.08.34-.09.5-.02.29-.04.63-.3.84-.14.12-.33.17-.52.14l-.17-.06c-2.21-1.23-4.37-1.84-6.39-1.84Z"/>
            </g>
            <g>
              <path class="cls-1" d="M338.97,125.68c-1.45-.46-6.21.88-6.28-.9,0-.45.32-.9.96-.9.65-.01,1.71.28,1.76-.58.03-2.82.06-8.72.06-13.27-.38-2.03.99-5.31-1.06-5.67-.28-.02-.37.02-.77.03-1.2,0-1.05-1.85.1-1.83,0,0,.99,0,.99,0,2,0,2.66,1.24,2.63,2.69-.08,4.29-.1,12.82-.1,18.05-.09.64.98.58,1.73.58,1.3,0,1.27,1.83-.03,1.8Z"/>
              <path class="cls-1" d="M334.76,126.24c-.91,0-1.68-.12-2.15-.53-.26-.23-.41-.54-.42-.9,0-.71.5-1.44,1.51-1.42.12,0,.27,0,.42.02.21.01.69.05.78-.04.05-2.82.08-8.67.08-13.33-.13-.67-.05-1.55.02-2.39.16-1.79.15-2.64-.67-2.79-.08,0-.15,0-.25.02-.11,0-.23.02-.42.02-.52,0-.94-.24-1.17-.65-.25-.45-.24-1.04.04-1.51.26-.44.7-.66,1.22-.67h.98c1,0,1.78.28,2.33.84s.82,1.37.8,2.37c-.07,4.02-.1,12.17-.1,18.04,0,0,0,0,0,0,.21.08.79.07,1.08.07h.15c.57,0,1.03.25,1.29.7.25.44.24,1-.02,1.43-.27.44-.76.67-1.3.67l-.14-.02c-.43-.13-1.38-.07-2.29,0-.62.04-1.22.09-1.78.09ZM333.7,124.38c-.45.01-.51.3-.51.4,0,.08.04.13.09.18.44.39,2.03.28,3.19.2,1.05-.08,1.96-.14,2.58.02.17,0,.29-.07.36-.18.08-.12.08-.29,0-.42-.07-.13-.21-.19-.41-.19h-.14c-.69,0-1.49.02-1.88-.43-.12-.14-.25-.37-.2-.72-.01-5.8.02-13.96.09-17.99,0-.5-.07-1.2-.52-1.65-.35-.36-.89-.54-1.61-.54h-.99c-.16,0-.28.06-.35.19-.09.15-.1.37-.03.5.03.06.1.14.29.14.14,0,.25-.01.34-.02.16-.01.27-.02.46-.01,1.86.33,1.68,2.29,1.54,3.87-.07.78-.14,1.59-.03,2.21,0,4.75-.02,10.61-.05,13.37-.03.43-.21.67-.36.8-.41.36-1.02.32-1.5.29-.12,0-.24-.02-.35-.02Z"/>
            </g>
            <g>
              <path class="cls-1" d="M350.35,125.68c-1.45-.46-6.21.88-6.28-.9,0-.45.32-.9.96-.9.53-.07,1.79.39,1.76-.61-.44-2.34,1.26-10.07-1.03-10.45-.68.12-1.66-.01-1.6-.83.03-1.18,1.23-.96,2.18-.93,1.76,0,2.37,1.28,2.37,2.63.34,2.07-.91,9.28.51,10.23.86.18,1.82-.61,2.12.87,0,.46-.35.92-.99.9ZM347.12,105.19c-.16,0-1.51,0-1.51-1.54.08-2.16,3.21-1.78,3.11,0,0,.26-.16,1.54-1.6,1.54Z"/>
              <path class="cls-1" d="M346.14,126.24c-.91,0-1.68-.12-2.15-.53-.26-.23-.41-.54-.42-.9,0-.7.51-1.42,1.46-1.42.13-.02.34,0,.56.02.19.02.59.06.7-.01,0,0,0-.03,0-.1-.15-.77-.06-2.17.05-3.78.15-2.2.4-5.86-.59-6.18-.55.08-1.25.02-1.69-.37-.28-.25-.42-.6-.4-1,0-.42.15-.78.42-1.03.5-.46,1.26-.42,1.93-.39h.34c1.76.01,2.86,1.21,2.86,3.14.13.72.04,2.11-.05,3.72-.12,2.04-.32,5.39.27,6.03.16,0,.33-.01.52-.04.59-.08,1.58-.21,1.88,1.28.01.47-.14.83-.4,1.09-.28.27-.65.4-1.1.41l-.13-.02c-.43-.13-1.37-.07-2.29,0-.62.04-1.22.09-1.78.09ZM345.16,124.38s-.05,0-.07,0c-.49,0-.53.31-.53.4,0,.08.04.13.09.18.44.39,2.03.28,3.19.2,1.05-.08,1.96-.14,2.58.02.13,0,.24-.05.31-.12.07-.07.11-.17.11-.27-.11-.48-.18-.47-.76-.39-.29.04-.61.08-.96.01l-.18-.07c-1.07-.71-1.01-3.23-.79-6.98.09-1.49.17-2.89.06-3.58,0-1.05-.33-2.21-1.88-2.21l-.38-.02c-.45-.02-1.01-.05-1.2.12-.06.06-.1.17-.1.34,0,.14.03.18.06.21.16.14.57.19.95.12l.09-.02h.09c1.96.34,1.72,3.86,1.49,7.27-.1,1.48-.2,2.87-.06,3.6.02.53-.16.8-.31.94-.4.38-1,.32-1.48.28-.12-.01-.25-.02-.34-.02ZM347.11,105.69c-.93,0-2.01-.53-2.01-2.04.03-.81.39-1.42,1.03-1.75.68-.35,1.57-.3,2.23.13.58.38.89.98.85,1.65,0,.54-.38,2.01-2.1,2.01ZM347.12,102.67c-.19,0-.37.04-.53.12-.31.16-.47.46-.49.88,0,.67.34,1.02,1.01,1.02,1.09,0,1.1-1,1.1-1.04.02-.43-.2-.66-.39-.78-.21-.13-.46-.2-.7-.2Z"/>
            </g>
            <g>
              <path class="cls-1" d="M371.51,125.65c-1.48-.48-5.38.89-5.77-.83,0-.46.35-.92.96-.9.45-.04,1.47.32,1.44-.54.03-1.47.03-3.3.03-4.81.34-3.17-.71-6.36-3.69-6.19-5.93.13-4.83,6.58-4.81,11.03.13,1.24,2.48-.21,2.4,1.38-.15,1.49-2.46.62-3.46.8-1.01-.15-3.23.62-3.3-.77,0-1.02,1.1-.93,1.96-.87,1.26-.62.3-4.73.61-5.9.39-8.62-1.66-3.23-2.69-6.09-.07-.94,1.14-1,1.86-.93,1.54-.07,2.26.86,2.69,1.96,3.01-3.66,10.03-3.01,10.26,2.85.04,1.29.07,5.26.06,7.53-.01.86.94.5,1.47.54,1.26,0,1.22,1.78-.03,1.73Z"/>
              <path class="cls-1" d="M367.65,126.21c-1.16,0-2.16-.24-2.4-1.29v-.11c-.02-.38.13-.75.4-1.01.27-.27.63-.4,1.06-.4.07,0,.24,0,.42.02.15.01.46.04.54,0,0-1.54,0-3.37,0-4.87.23-2.14-.18-3.96-1.1-4.92-.53-.56-1.22-.82-2.06-.77-1.37.03-2.37.41-3.07,1.14-1.52,1.61-1.41,4.76-1.31,7.55.02.63.04,1.25.04,1.83.09.07.46.07.66.06.5,0,1.05-.02,1.43.37.23.23.33.56.31.97-.16,1.56-1.84,1.4-2.84,1.3-.39-.04-.8-.08-1.03-.03l-.08.02h-.08c-.24-.05-.62-.01-.99.02-.82.07-1.75.15-2.31-.33-.18-.16-.4-.45-.43-.94,0-.44.14-.77.4-1.01.49-.45,1.26-.43,1.92-.39.42-.42.3-2.29.24-3.32-.05-.88-.1-1.65,0-2.14.16-3.61-.14-4.44-.34-4.62-.05-.04-.18-.03-.39,0-.5.08-1.42.21-1.94-1.24l-.03-.13c-.03-.4.1-.74.36-1,.54-.53,1.52-.52,2.05-.46,1.2-.06,2.14.46,2.78,1.58,1.78-1.69,4.56-2.34,6.89-1.56,2.28.77,3.64,2.69,3.74,5.27.04,1.26.07,5.21.06,7.56.05.1.34.07.49.06.19-.02.37-.03.52-.02h.02c.5,0,.95.25,1.19.68s.24.98-.02,1.41c-.26.43-.74.67-1.28.64l-.13-.02c-.45-.14-1.31-.07-2.14,0-.52.04-1.06.09-1.57.09ZM366.24,124.76c.22.6,1.69.47,2.89.37.93-.08,1.82-.16,2.46.02.15,0,.26-.06.33-.17.07-.12.07-.28,0-.4-.06-.11-.19-.17-.37-.17h0c-.15-.01-.27,0-.4.01-.41.03-.91.08-1.27-.25-.21-.19-.31-.47-.31-.81,0-2.33-.02-6.26-.06-7.51-.11-2.93-1.96-3.99-3.06-4.36-2.19-.74-4.85.02-6.32,1.81l-.54.66-.31-.79c-.47-1.2-1.15-1.69-2.21-1.64-.64-.06-1.15.01-1.32.18-.02.02-.06.05-.06.15.23.6.4.58.83.51.34-.05.8-.12,1.21.24.53.47.84,1.58.66,5.46l-.02.11c-.09.33-.04,1.12,0,1.88.12,1.86.23,3.79-.88,4.34l-.12.06h-.13c-.48-.04-1.14-.09-1.34.1-.02.02-.08.07-.08.26,0,.14.06.19.08.21.24.21,1.01.14,1.57.09.41-.04.81-.07,1.14-.04.35-.05.78,0,1.23.04,1.33.13,1.7.05,1.75-.38,0-.12-.02-.19-.03-.2-.08-.08-.48-.07-.7-.07-.54.01-1.57.03-1.67-1.01,0-.62-.03-1.23-.05-1.85-.1-2.98-.22-6.36,1.59-8.27.88-.93,2.14-1.42,3.75-1.46,1.12-.06,2.1.31,2.83,1.08,1.12,1.17,1.63,3.29,1.37,5.66,0,1.46,0,3.29-.03,4.77.01.4-.15.65-.3.79-.37.35-.91.3-1.3.26-.11-.01-.22-.02-.3-.02-.17,0-.31.03-.39.11-.06.06-.1.14-.11.23Z"/>
            </g>
            <g>
              <path class="cls-1" d="M382.8,125.68c-1.45-.46-6.21.88-6.28-.9,0-.45.32-.9.96-.9.53-.07,1.79.39,1.76-.61-.44-2.34,1.26-10.07-1.03-10.45-.68.12-1.66-.01-1.6-.83.03-1.18,1.23-.96,2.18-.93,1.76,0,2.37,1.28,2.37,2.63.34,2.07-.91,9.28.51,10.23.86.18,1.82-.61,2.12.87,0,.46-.35.92-.99.9ZM379.56,105.19c-.16,0-1.51,0-1.51-1.54.08-2.16,3.21-1.78,3.11,0,0,.26-.16,1.54-1.6,1.54Z"/>
              <path class="cls-1" d="M378.59,126.24c-.91,0-1.68-.12-2.15-.53-.26-.23-.41-.54-.42-.9,0-.72.5-1.42,1.46-1.42.13-.02.34,0,.56.02.19.02.59.06.7-.01,0,0,0-.03,0-.1-.15-.77-.06-2.17.05-3.78.15-2.2.4-5.86-.59-6.18-.55.08-1.25.02-1.69-.37-.28-.25-.42-.6-.4-1,0-.42.15-.78.42-1.03.5-.46,1.26-.42,1.93-.39h.34c1.76.01,2.86,1.21,2.86,3.14.13.72.04,2.11-.05,3.72-.12,2.04-.32,5.39.27,6.03.16,0,.33-.01.52-.04.59-.08,1.58-.21,1.88,1.28.01.47-.13.83-.4,1.09-.28.28-.64.41-1.1.41l-.13-.02c-.43-.13-1.37-.07-2.29,0-.62.04-1.22.09-1.78.09ZM377.61,124.38s-.05,0-.07,0c-.49,0-.53.31-.53.4,0,.08.04.13.09.18.44.39,2.03.28,3.19.2,1.05-.08,1.96-.14,2.58.02.13,0,.24-.05.31-.12.07-.07.11-.17.11-.27-.1-.48-.18-.47-.76-.39-.29.04-.61.08-.96.01l-.18-.07c-1.07-.71-1.01-3.23-.79-6.98.09-1.49.17-2.89.06-3.58,0-1.05-.33-2.21-1.88-2.21l-.38-.02c-.46-.02-1.01-.05-1.2.12-.06.06-.1.17-.1.34,0,.14.03.18.06.21.16.14.57.19.95.12l.09-.02h.09c1.96.34,1.72,3.86,1.49,7.27-.1,1.48-.2,2.87-.06,3.6.02.53-.16.8-.31.94-.4.38-1,.32-1.48.28-.12-.01-.25-.02-.34-.02ZM379.56,105.69c-.93,0-2.01-.53-2.01-2.04.03-.81.39-1.42,1.03-1.75.68-.35,1.57-.3,2.23.13.58.38.89.98.85,1.65,0,.54-.38,2.01-2.1,2.01ZM379.57,102.67c-.19,0-.37.04-.53.12-.31.16-.47.46-.49.88,0,.67.34,1.02,1.01,1.02,1.09,0,1.1-1,1.1-1.04.02-.43-.2-.66-.39-.78-.21-.13-.46-.2-.7-.2Z"/>
            </g>
            <g>
              <path class="cls-1" d="M396.23,126.03c-12.82-.45-7.37-20.21,3.3-14.46.48.25.14-.96,1.09-.83,1.38-.05.8,1.78.9,2.53-.11.68.5,2.67-.9,2.6-2-.29.6-3.37-4.49-3.59-6.94-.28-7.74,12,0,12.02,2.21.26,3.43-1.52,4.94-2.34,2.92,1.07-1.03,4.05-4.84,4.07Z"/>
              <path class="cls-1" d="M396.23,126.53h0c-5.08-.18-6.86-3.16-7.48-4.93-1.17-3.37-.03-7.65,2.67-9.95,1.32-1.12,4.08-2.67,8.05-.68.14-.33.43-.84,1.23-.73.35-.03.7.1.96.37.49.5.43,1.32.38,1.98-.02.24-.03.48-.01.62v.07s0,.07,0,.07c-.02.12,0,.36.02.59.05.69.11,1.55-.39,2.07-.18.18-.49.39-1.04.36-1.17-.17-1.32-1.03-1.43-1.66-.16-.89-.32-1.81-3.05-1.93-1.7-.07-3.14.71-4.05,2.19-1.17,1.9-1.25,4.55-.2,6.45.6,1.08,1.83,2.37,4.28,2.38,1.4.16,2.34-.56,3.33-1.33.43-.34.88-.69,1.36-.95l.2-.11.21.08c1.38.51,1.38,1.4,1.32,1.76-.29,1.64-3.42,3.27-6.33,3.28h-.01ZM395.74,111.03c-1.35,0-2.6.46-3.68,1.39-2.4,2.05-3.43,5.86-2.38,8.86.91,2.62,3.24,4.13,6.56,4.25,2.67-.02,5.17-1.52,5.34-2.45.04-.21-.12-.4-.47-.56-.34.21-.67.47-1.03.74-1.05.82-2.24,1.74-4.01,1.54-2.23,0-4.06-1.03-5.09-2.89-1.22-2.19-1.13-5.26.22-7.46,1.11-1.8,2.85-2.74,4.95-2.67,3.27.14,3.76,1.44,4,2.76.12.66.17.78.54.83.09,0,.18-.02.23-.07.19-.19.14-.88.11-1.3-.02-.28-.04-.53-.02-.74-.02-.22,0-.48.02-.75.03-.41.07-1.03-.1-1.21-.05-.05-.15-.08-.29-.07-.17-.02-.2,0-.2,0-.03.03-.07.16-.1.23-.07.2-.16.48-.46.6-.13.05-.33.08-.58-.05-1.22-.66-2.43-.99-3.56-.99Z"/>
            </g>
          </g>
          <g>
            <path class="cls-1" d="M8.82,15.34s9.6.89,11.89,6.42c2.28,5.53,2.49,13.91,2.49,13.91,0,0,.56,13.13-.6,22.56-1.16,9.42,2.92,20.6,12,22.77,9.08,2.17,15.11,1,21.67-.48,6.55-1.48,20.12-2.63,23.43.01,0,0,.53,16.56-6.62,28.48,0,0-5.48,9.23-12.52,11.35,0,0-18.87,1.32-30.8-11.99,0,0-12.68-11.28-15.93-28.07,0,0-3.01-14.41,1.78-30.61,0,0,.8-2.91,2.04-6.87.11-.35.17-.72.16-1.09-.04-2.18-.28-10.27-1.82-16.25,0,0-7.64,9.12-11.19,19.69-3.54,10.57-4.55,20.06-3.79,28.25.76,8.19,4,20.78,8.59,27.94s6.78,11.1,14.74,18.18c7.96,7.08,21.11,14.63,34.71,15.77,13.6,1.14,29.84-.14,47.59-11.4,17.74-11.26,25.36-33.83,25.36-33.83,0,0,3.4-7.61,3.84-23.56.44-15.95-9.29-35.81-18.91-45.28C107.32,11.77,91.43,2.52,78.42,1.2c-13.01-1.32-24.92.64-32.41,3.28,0,0,20.93,1.43,36.72,8.24,15.8,6.82,25.38,15.07,31.19,23.62,5.81,8.55,16.62,27.22,3.72,56.94,0,0-5.4,10.84-17.64,18.69-10.35,6.63-17.71,5.81-17.71,5.81,0,0,8.59-21.27,7.76-37.77,0,0-1-4.04.12-7.43,1.12-3.38,3.81-7.93,4.79-16.26.98-8.33-.39-17.25-4.36-24.43-3.97-7.18-12.72-17.88-30.59-21.32-17.87-3.45-32.24-.97-51.18,4.78Z"/>
            <path class="cls-1" d="M66.89,136.43c-2.87,0-5.51-.15-7.89-.35-14.02-1.18-27.36-9.02-35.16-15.97-7.36-6.55-9.9-10.54-13.75-16.58-.36-.57-.73-1.15-1.13-1.76-4.61-7.19-7.93-19.94-8.71-28.28-.83-8.9.46-18.51,3.83-28.57,3.55-10.59,11.01-19.57,11.33-19.95l.97-1.16.38,1.46c1.55,6.03,1.8,14.1,1.84,16.43,0,.45-.06.9-.2,1.34-1.23,3.9-2.03,6.82-2.04,6.84-4.69,15.82-1.8,30.1-1.77,30.24,3.16,16.34,15.56,27.54,15.69,27.65l.06.06c11.14,12.42,28.72,11.8,30.09,11.73,6.64-2.07,11.94-10.89,11.99-10.98,6.36-10.61,6.54-25.14,6.52-27.68-3.32-2.02-15.5-1.24-22.49.34-7,1.58-13.06,2.62-22.02.48-9.42-2.25-13.8-13.78-12.59-23.62,1.14-9.25.6-22.3.6-22.43,0-.1-.23-8.31-2.44-13.64-2.08-5.03-11.15-5.94-11.24-5.94l-3.94-.37,3.78-1.15c18.81-5.71,33.27-8.32,51.55-4.79,17.68,3.41,26.69,13.69,31.12,21.71,3.87,6.99,5.49,16.07,4.45,24.9-.75,6.34-2.49,10.57-3.76,13.65-.43,1.04-.8,1.94-1.07,2.76-1.03,3.12-.11,6.96-.1,7l.02.15c.44,8.63-1.71,18.53-3.59,25.32-1.51,5.45-3.09,9.83-3.82,11.74,2.33-.06,8.41-.74,16.17-5.71,11.9-7.63,17.31-18.27,17.37-18.38,13.45-30.99.57-49.93-3.66-56.16-6.4-9.41-16.78-17.26-30.86-23.34-15.49-6.69-36.26-8.16-36.47-8.18l-3.75-.26,3.55-1.25C54.92.51,67.17-.73,78.5.42c14.1,1.44,30.09,11.51,38.99,20.26,9.56,9.41,19.59,29.61,19.14,45.86-.43,15.56-3.62,23.19-3.89,23.82-.36,1.03-8.22,23.13-25.67,34.2-15.34,9.73-29.37,11.87-40.18,11.87ZM15.6,27.22c-2.16,2.83-7.36,10.13-10.06,18.19-3.3,9.85-4.56,19.25-3.75,27.93.76,8.16,3.99,20.61,8.47,27.59.39.61.77,1.2,1.13,1.76,3.91,6.14,6.28,9.85,13.48,16.26,7.62,6.78,20.62,14.43,34.26,15.58,11.12.93,28.1.78,47.11-11.28,17.31-10.98,24.96-33.2,25.04-33.42l.03-.07c.03-.07,3.34-7.69,3.77-23.26.44-15.83-9.35-35.53-18.67-44.71C107.69,13.22,92.07,3.37,78.34,1.97c-9.67-.98-20-.2-28.43,2.1,6.83.77,21.44,2.89,33.12,7.93,14.35,6.19,24.96,14.23,31.53,23.89,4.35,6.4,17.6,25.88,3.79,57.69-.24.49-5.66,11.16-17.94,19.03-10.46,6.7-17.9,5.96-18.21,5.93l-1.02-.11.38-.95c.08-.21,8.5-21.24,7.71-37.37-.14-.6-.95-4.44.15-7.78.29-.88.67-1.8,1.11-2.87,1.24-3,2.93-7.11,3.65-13.24,1-8.52-.55-17.25-4.27-23.97-4.28-7.73-12.97-17.64-30.06-20.94-16.95-3.27-30.6-1.15-47.69,3.83,3.17.78,7.7,2.53,9.26,6.31,2.31,5.6,2.54,13.83,2.55,14.18,0,.12.54,13.29-.61,22.67-1.13,9.17,2.83,19.87,11.41,21.92,8.65,2.07,14.29,1.1,21.32-.49,5.48-1.24,20.19-2.95,24.08.16l.28.22v.36c.03.69.46,16.92-6.72,28.91-.23.38-5.71,9.51-12.96,11.7l-.17.03c-.19.01-19.36,1.19-31.41-12.21-.75-.68-12.97-12.05-16.14-28.47-.03-.13-3-14.78,1.8-30.98,0-.01.81-2.95,2.05-6.88.09-.28.13-.56.12-.84-.04-2.09-.25-8.88-1.43-14.52Z"/>
          </g>
          <g>
            <path class="cls-4" d="M40.7,31.55s22.25,5.69,33.11,27.94c0,0-3.62-24.83-33.11-27.94Z"/>
            <path class="cls-4" d="M46.12,32.96c11.56,2.58,18.14,8.84,21.74,13.99,2.16,3.09,3.5,6.12,4.31,8.43-5.58-9.32-13.09-15.22-18.72-18.64-2.75-1.67-5.27-2.9-7.33-3.78M40.7,31.55s22.25,5.69,33.11,27.94c0,0-3.62-24.83-33.11-27.94h0Z"/>
          </g>
          <path class="cls-3" d="M90.88,72.94s1.68-.59,6.44-4.17c0,0,3.8-3.32,6.35-7.59,0,0,3-6.46,6.66-10.28,3.65-3.82,7.79-4.75,10.12-5.06,0,0,5.21-1.04,10.5,2.95,5.29,3.98,6.18,9.54,5.21,12.97-.96,3.43-5.1,6.53-5.1,6.53,0,0,5.69,3.62,5.69,9.31,0,6.73-4.94,13.71-14.49,12.93,0,0-9.11-1.02-17.23-6.72-8.12-5.7-14.15-10.88-14.15-10.88Z"/>
        </g>
      </g>
    </g>
  </g>
</svg>